<?xml version="1.0" encoding="UTF-8"?>
<svg width="64px" height="64px" viewBox="0 0 64 64" version="1.1" xmlns="http://www.w3.org/2000/svg" xmlns:xlink="http://www.w3.org/1999/xlink">
    <!-- Generator: Sketch 53.2 (72643) - https://sketchapp.com -->
    <title>favicon</title>
    <desc>Created with Sketch. | Meraki 🦄</desc>
    <defs>
        <polygon id="path-1" points="0.10625 0.0304166667 14.6825 0.0304166667 14.6825 14.6591667 0.10625 14.6591667"></polygon>
        <polygon id="path-3" points="0.262285714 0.3545 2.72228571 0.3545 2.72228571 0.7105 0.262285714 0.7105"></polygon>
        <polygon id="path-5" points="0 0.0304166667 14.8852703 0.0304166667 14.8852703 14.7358333 0 14.7358333"></polygon>
    </defs>
    <g id="Page-1" stroke="none" stroke-width="1" fill="none" fill-rule="evenodd">
        <g id="-" transform="translate(-50.000000, -366.000000)">
            <g id="favicon" transform="translate(50.000000, 366.000000)">
                <rect id="bg" fill="#EDEDED" x="0" y="0" width="64" height="64"></rect>
                <g id="logo-s4n-copy" transform="translate(9.000000, 25.000000)">
                    <path d="M32.0004077,9.06864963 L32.0004077,0 L40.9964937,0 C42.2289962,0 43.223397,0.0878760461 43.9442255,0.321420493 C45.9990759,0.98642841 47,2.69644877 47,5.37785569 L47,14 L43.6152048,14 L43.6152048,4.942038 C43.6152048,4.15590364 43.3583485,3.58589686 42.8495284,3.2450803 C42.6122421,3.08555757 42.1535702,2.99095227 41.493898,2.99095227 L35.445136,2.99095227 L35.445136,14 L32,14 L32,11.5731169" id="Path" fill="#EC1C25" fill-rule="nonzero"></path>
                    <g id="Group" transform="translate(16.000000, 0.000000)">
                        <g id="Clipped">
                            <mask id="mask-2" fill="white">
                                <use xlink:href="#path-1"></use>
                            </mask>
                            <g id="a"></g>
                            <polygon id="Path" fill="#EC1C25" fill-rule="nonzero" mask="url(#mask-2)" points="12.9279167 0.0304166667 3.66416667 9.50625 9.555 9.50625 9.555 6.07083333 12.9858333 6.07083333 12.9858333 9.50625 14.6825 9.50625 14.6825 12.1204167 12.975 12.1204167 12.975 14.6591667 9.555 14.6591667 9.555 12.1204167 0.10625 12.1204167 0.10625 8.92541667 8.5375 0.0304166667"></polygon>
                        </g>
                    </g>
                    <g id="Group" transform="translate(0.000000, 14.000000)">
                        <g id="Clipped">
                            <mask id="mask-4" fill="white">
                                <use xlink:href="#path-3"></use>
                            </mask>
                            <g id="c"></g>
                            <polygon id="Path" fill="#DC2828" fill-rule="nonzero" mask="url(#mask-4)" points="0.262285714 0.71 2.718 0.71 2.72228571 0.709 0.262714286 0.709 0.262714286 0.7105"></polygon>
                        </g>
                    </g>
                    <g id="Clipped">
                        <mask id="mask-6" fill="white">
                            <use xlink:href="#path-5"></use>
                        </mask>
                        <g id="e"></g>
                        <path d="M14.4048649,8.10958333 C14.0140541,7.22708333 13.2887838,6.60958333 12.2355405,6.25625 C11.6322973,6.04625 10.7168919,5.94375 9.49621622,5.94375 L6.21527027,5.94375 C5.34040541,5.94375 4.71527027,5.8625 4.33945946,5.69708333 C3.77756757,5.45125 3.49824324,4.97666667 3.49824324,4.27375 C3.49824324,3.44291667 3.83351351,2.94291667 4.50324324,2.77791667 C4.82675676,2.7 5.48959459,2.65583333 6.48689189,2.64875 L14.0266216,2.64875 L14.0266216,0.0304166667 L5.76486486,0.0304166667 C4.88675676,0.0304166667 4.22391892,0.0525 3.78121622,0.0970833333 C2.4677027,0.232916667 1.51094595,0.714583333 0.915810811,1.53875 C0.30527027,2.39083333 0,3.33625 0,4.36958333 C0,4.99458333 0.118783784,5.59 0.361216216,6.14916667 C0.621486486,6.75958333 0.997702703,7.26333333 1.48135135,7.6575 C2.22567568,8.26 3.43945946,8.56166667 5.12472973,8.56166667 L8.77783784,8.56166667 C9.54,8.56166667 10.0986486,8.65333333 10.4489189,8.84083333 C11.0594595,9.17208333 11.3647297,9.69416667 11.3647297,10.4033333 C11.3647297,11.0216667 11.1036486,11.485 10.5794595,11.79375 C10.2137838,12.0104167 9.48891892,12.1170833 8.39432432,12.1170833 L3.51040541,12.1170833 L3.50918919,12.1179167 L0.779189189,12.1179167 L0.779594595,14.7354167 L9.0827027,14.7354167 C10.217027,14.7354167 11.0663514,14.6875 11.6359459,14.5958333 C12.8047297,14.4008333 13.6824324,13.80125 14.2633784,12.7979167 C14.6768919,12.0841667 14.8852703,11.2820833 14.8852703,10.3925 C14.8852703,9.58 14.7251351,8.81916667 14.4048649,8.10916667" id="Path" fill="#EC1C25" fill-rule="nonzero" mask="url(#mask-6)"></path>
                    </g>
                </g>
            </g>
        </g>
    </g>
</svg>